<?xml version="1.0" encoding="utf-8"?>
<!-- Generator: Adobe Illustrator 27.5.0, SVG Export Plug-In . SVG Version: 6.00 Build 0)  -->
<svg version="1.1" xmlns="http://www.w3.org/2000/svg" xmlns:xlink="http://www.w3.org/1999/xlink" x="0px" y="0px"
	 viewBox="0 0 2200 2200" style="enable-background:new 0 0 2200 2200;" xml:space="preserve">
<g id="Background">
	<rect style="fill:#FFFFFF;" width="2200" height="2200"/>
</g>
<g id="Objects">
	<g>
		<path style="fill:#E03F4F;" d="M504.819,1173.078H292.853c-6.169-10.749-17.752-17.995-31.034-17.995
			c-19.754,0-35.768,16.014-35.768,35.768c0,19.754,16.014,35.768,35.768,35.768c13.282,0,24.865-7.246,31.034-17.995h237.692
			L504.819,1173.078z"/>
		<path style="fill:#E03F4F;" d="M1669.454,1208.624h237.692c6.169,10.749,17.752,17.995,31.034,17.995
			c19.754,0,35.768-16.014,35.768-35.768c0-19.754-16.014-35.768-35.768-35.768c-13.282,0-24.865,7.246-31.034,17.995h-211.966
			L1669.454,1208.624z"/>
		<g>
			<path style="fill:#E03F4F;" d="M1294.81,1208.624h374.633c-0.61,0.789-1.22,1.579-1.83,2.368
				c-152.877,197.453-390.983,311.71-567.613,498.673c-177.324-187.705-416.626-302.129-569.454-501.041h344.792
				c6.327,0,12.176-3.361,15.357-8.827l17.809-30.571l80.266,203.014c2.691,6.829,9.281,11.243,16.517,11.243
				c0.502,0,0.993-0.024,1.495-0.06c7.81-0.658,14.281-6.351,15.907-14.029l85.205-401.125l62.756,288.578
				c1.651,7.559,7.978,13.18,15.668,13.922c7.703,0.754,14.974-3.564,18.036-10.657l49.587-115.07l24.363,52.41
				C1281.007,1204.199,1287.538,1208.624,1294.81,1208.624z"/>
		</g>
		<g>
			<path style="fill:#E03F4F;" d="M1774.119,1018.515c-20.572,57.266-47.423,108.217-78.95,154.563h-388.328l-35.785-80.983
				c-2.667-6.674-9.09-11.075-16.266-11.171h-0.239c-7.092,0-13.515,4.21-16.326,10.74l-44.6,103.493l-68.568-315.262
				c-1.77-8.169-9.006-13.994-17.366-13.994h-0.048c-8.372,0.024-15.608,5.885-17.343,14.077l-90.145,424.364l-72.049-182.251
				c-2.512-6.327-8.408-10.681-15.202-11.195c-6.781-0.502-13.276,2.906-16.697,8.791l-31.085,53.391H504.819
				c-31.527-46.358-58.378-97.309-78.95-154.563c-39.541-110.083-32.054-237.448,24.303-340.438
				C526.407,538.751,706.661,461.44,864.43,500.394c101.746,25.117,187.813,97.034,235.57,187.227
				c47.758-90.193,133.824-162.11,235.582-187.227c157.756-38.955,338.022,38.357,414.245,177.682
				C1806.185,781.067,1813.672,908.432,1774.119,1018.515z"/>
		</g>
	</g>
</g>
</svg>
